<svg xmlns="http://www.w3.org/2000/svg" xmlns:xlink="http://www.w3.org/1999/xlink" viewBox="0,0,256,256" width="96px" height="96px"><g fill="#009458" fill-rule="nonzero" stroke="none" stroke-width="1" stroke-linecap="butt" stroke-linejoin="miter" stroke-miterlimit="10" stroke-dasharray="" stroke-dashoffset="0" font-family="none" font-weight="none" font-size="none" text-anchor="none" style="mix-blend-mode: normal"><g transform="scale(10.66667,10.66667)"><path d="M12,2c-5.5,0 -10,4.5 -10,10c0,5.5 4.5,10 10,10c5.5,0 10,-4.5 10,-10c0,-1.1 -0.2,-2.19922 -0.5,-3.19922l-1.69922,1.59961c0.1,0.5 0.19922,0.99961 0.19922,1.59961c0,4.4 -3.6,8 -8,8c-4.4,0 -8,-3.6 -8,-8c0,-4.4 3.6,-8 8,-8c1.6,0 3.10039,0.50078 4.40039,1.30078l1.40039,-1.40039c-1.6,-1.2 -3.60078,-1.90039 -5.80078,-1.90039zM21.30078,3.30078l-10.30078,10.29883l-3.30078,-3.29883l-1.39844,1.39844l4.69922,4.70117l11.69922,-11.70117z"></path></g></g></svg>